<svg width="125" height="31" viewBox="0 0 125 31" fill="none" xmlns="http://www.w3.org/2000/svg">
<path d="M124.466 12.9663C124.11 12.2856 123.634 11.7489 123.043 11.3496C122.452 10.9503 121.803 10.6689 121.092 10.4921C120.38 10.322 119.668 10.2303 118.95 10.2303C117.908 10.2303 116.961 10.3874 116.097 10.7081C115.239 11.0223 114.508 11.5001 113.917 12.1285C113.32 12.7569 112.894 13.5423 112.633 14.4718L115.913 14.9496C116.084 14.4259 116.427 13.9678 116.929 13.5816C117.431 13.1954 118.111 12.999 118.969 12.999C119.783 12.999 120.405 13.2085 120.844 13.6209C121.276 14.0332 121.492 14.6158 121.492 15.3685V15.4274C121.492 15.7743 121.365 16.0296 121.117 16.1932C120.869 16.3569 120.469 16.4747 119.929 16.5532C119.389 16.6318 118.677 16.7169 117.806 16.8085C117.082 16.887 116.383 17.0179 115.703 17.1947C115.029 17.3714 114.419 17.6267 113.885 17.967C113.351 18.3074 112.926 18.759 112.614 19.3285C112.303 19.8979 112.15 20.6114 112.15 21.4754C112.15 22.4834 112.366 23.3278 112.805 24.015C113.243 24.7023 113.834 25.2194 114.591 25.5663C115.347 25.9132 116.192 26.0899 117.139 26.0899C117.914 26.0899 118.594 25.9787 119.173 25.7561C119.751 25.5336 120.234 25.239 120.615 24.8659C121.003 24.4994 121.301 24.1001 121.511 23.6747H121.626V25.7823H125V15.5125C125 14.4914 124.822 13.6405 124.466 12.9663ZM121.498 20.2776C121.498 20.8405 121.359 21.3641 121.079 21.8485C120.799 22.3263 120.399 22.7125 119.878 23.0005C119.363 23.2885 118.747 23.4325 118.041 23.4325C117.311 23.4325 116.707 23.2623 116.237 22.9219C115.766 22.5816 115.531 22.0776 115.531 21.4099C115.531 20.9452 115.652 20.559 115.887 20.2645C116.129 19.9699 116.453 19.7343 116.866 19.5707C117.279 19.407 117.749 19.2827 118.27 19.2107C118.505 19.1779 118.779 19.1387 119.096 19.0929C119.414 19.047 119.732 18.9947 120.056 18.9358C120.38 18.8768 120.672 18.8049 120.933 18.7263C121.193 18.6478 121.378 18.5627 121.492 18.4645V20.2776H121.498Z" fill="black"/>
<path d="M95.2026 12.0963C94.5735 11.4614 93.849 10.9966 93.0292 10.6955C92.2095 10.3945 91.3452 10.2439 90.4237 10.2439C89.0002 10.2439 87.761 10.5777 86.7061 11.2454C85.6512 11.913 84.8314 12.849 84.2468 14.0403C83.6621 15.2381 83.3698 16.6257 83.3698 18.2032C83.3698 19.8068 83.6621 21.201 84.2404 22.3857C84.8251 23.5704 85.6576 24.4803 86.7379 25.1217C87.8182 25.7632 89.1083 26.0839 90.6017 26.0839C91.7583 26.0839 92.7878 25.9006 93.6838 25.5406C94.5798 25.1806 95.3233 24.6635 95.9016 24.0024C96.4799 23.3413 96.8739 22.5624 97.0773 21.6723L93.7982 21.2926C93.6457 21.7246 93.4105 22.0912 93.1119 22.3792C92.8068 22.6737 92.4509 22.8963 92.0379 23.0468C91.6248 23.1973 91.1609 23.2693 90.6525 23.2693C89.8899 23.2693 89.2227 23.0992 88.6571 22.7653C88.0851 22.4315 87.6466 21.9406 87.3289 21.3057C87.0239 20.6904 86.865 19.9574 86.8587 19.0999H97.2362V17.9937C97.2362 16.6454 97.0582 15.4868 96.696 14.5115C96.3338 13.5297 95.8317 12.7312 95.2026 12.0963ZM86.865 16.6584C86.8968 16.0563 87.0493 15.4999 87.3162 14.9828C87.6149 14.4068 88.0406 13.9421 88.5808 13.5821C89.121 13.2286 89.7565 13.0454 90.4746 13.0454C91.1482 13.0454 91.7392 13.2025 92.2476 13.5166C92.756 13.8308 93.15 14.2563 93.436 14.7995C93.7219 15.3428 93.8681 15.9581 93.8744 16.6519H86.865V16.6584Z" fill="black"/>
<path d="M62.4306 12.0963C61.8015 11.4614 61.077 10.9966 60.2573 10.6955C59.4375 10.3945 58.5732 10.2439 57.6518 10.2439C56.2283 10.2439 54.9891 10.5777 53.9341 11.2454C52.8792 11.913 52.0595 12.849 51.4748 14.0403C50.8902 15.2381 50.5978 16.6257 50.5978 18.2032C50.5978 19.8068 50.8902 21.201 51.4685 22.3857C52.0531 23.5704 52.8856 24.4803 53.9659 25.1217C55.0462 25.7632 56.3363 26.0839 57.8297 26.0839C58.9863 26.0839 60.0158 25.9006 60.9118 25.5406C61.8079 25.1806 62.5514 24.6635 63.1297 24.0024C63.708 23.3413 64.102 22.5624 64.3053 21.6723L61.0262 21.2926C60.8737 21.7246 60.6385 22.0912 60.3399 22.3792C60.0348 22.6737 59.679 22.8963 59.2659 23.0468C58.8528 23.1973 58.3889 23.2693 57.8805 23.2693C57.1179 23.2693 56.4507 23.0992 55.8851 22.7653C55.3132 22.4315 54.8747 21.9406 54.5569 21.3057C54.2519 20.6904 54.093 19.9574 54.0867 19.0999H64.4642V17.9937C64.4642 16.6454 64.2863 15.4868 63.924 14.5115C63.5554 13.5297 63.0598 12.7312 62.4306 12.0963ZM54.0867 16.6584C54.1184 16.0563 54.271 15.4999 54.5379 14.9828C54.8365 14.4068 55.2623 13.9421 55.8025 13.5821C56.3426 13.2286 56.9781 13.0454 57.6962 13.0454C58.3699 13.0454 58.9609 13.2025 59.4692 13.5166C59.9776 13.8308 60.3716 14.2563 60.6576 14.7995C60.9436 15.3428 61.0898 15.9581 61.0961 16.6519H54.0867V16.6584Z" fill="black"/>
<path d="M103.61 13.8436H100.204V25.6844H103.61V13.8436Z" fill="black"/>
<path d="M103.611 13.8442H110.328V10.3359H106.966L103.611 13.8442Z" fill="black"/>
<path d="M77.7964 10.9178C77.0274 10.4661 76.1314 10.237 75.1019 10.237C74.7015 10.237 74.3266 10.2698 73.9707 10.3352H73.9771L70.6217 13.8436H67.1329V25.7825H70.6471V19.2567H70.6344V13.8436H75.5849C75.7056 13.9418 75.8263 14.0465 75.9344 14.1643C76.4491 14.7469 76.7033 15.5454 76.7033 16.573V25.789H80.2176V16.0101C80.2239 14.7861 80.0142 13.7389 79.5948 12.8814C79.1563 12.024 78.5589 11.3694 77.7964 10.9178Z" fill="black"/>
<path d="M39.7438 17.9218H44.3384C44.3193 18.8643 44.1223 19.689 43.7347 20.396C43.3343 21.1356 42.756 21.705 42.0125 22.1043C41.269 22.5036 40.392 22.7065 39.3752 22.7065C38.2568 22.7065 37.2781 22.425 36.4329 21.8687C35.5877 21.3123 34.9268 20.4941 34.4566 19.4141C33.9799 18.3341 33.7448 17.025 33.7448 15.4672C33.7448 13.929 33.9863 12.62 34.4629 11.5465C34.9395 10.4731 35.6004 9.66142 36.4393 9.10505C37.2781 8.54869 38.2314 8.27378 39.3053 8.27378C39.9027 8.27378 40.4556 8.35233 40.964 8.50942C41.4723 8.66651 41.9235 8.90214 42.3112 9.20978C42.7052 9.51742 43.042 9.89051 43.3216 10.316C43.6012 10.748 43.8237 11.2323 43.9889 11.7756H47.6747C47.5222 10.7676 47.2108 9.84469 46.7278 9.00687C46.2449 8.16905 45.6348 7.44906 44.8913 6.84033C44.1478 6.2316 43.3026 5.76033 42.3493 5.43306C41.3961 5.09924 40.3666 4.9356 39.2608 4.9356C37.9581 4.9356 36.7443 5.17779 35.6386 5.6556C34.5265 6.13342 33.5605 6.82724 32.7344 7.7436C31.9082 8.65996 31.2664 9.76614 30.8088 11.0687C30.3513 12.3712 30.1225 13.857 30.1225 15.513C30.1225 17.6796 30.5102 19.5516 31.2855 21.129C32.0608 22.7065 33.1411 23.9174 34.5328 24.7749C35.9182 25.6258 37.5323 26.0578 39.3689 26.0578C41.0211 26.0578 42.4828 25.7109 43.7537 25.017C45.0247 24.3232 46.0288 23.3349 46.7533 22.0519C47.4841 20.769 47.8463 19.244 47.8463 17.4832V15.0156H39.7438V17.9218Z" fill="black"/>
<path d="M4.78523 4.92955H0V26.0713H4.78523V4.92955Z" fill="black"/>
<path d="M14.2223 26.0713V31H9.507L4.78523 26.0713L14.2223 26.0713Z" fill="black"/>
<path d="M14.2278 26.0726H19.013V4.9308H14.2278V26.0726Z" fill="black"/>
<path d="M4.78558 4.92872V0H9.50726L14.2226 4.92872H4.78558Z" fill="black"/>
</svg>
